<?xml  version="1.0" encoding="UTF-8"?>
<!DOCTYPE svg PUBLIC "-//W3C//DTD SVG 1.0//EN" "http://www.w3.org/TR/2001/REC-SVG-20010904/DTD/svg10.dtd" >
<svg xmlns="http://www.w3.org/2000/svg" >
<metadata>
<version>1.0</version>
<id><![CDATA[Proxima N W01 Cd Xbold It]]></id>
<vendor>Monotype Imaging Inc.</vendor>
<credits>
<name>Fonts.com WebFonts</name>
<URL>http://webfonts.fonts.com</URL>
<role>Home of the Web fonts</role>
</credits>
<license>
<URL>http://webfonts.fonts.com/Legal</URL>
</license>
<copyright><![CDATA[Copyright (c) Mark Simonson, 2005. All rights reserved.]]></copyright>
<trademark><![CDATA[Proxima Nova is a trademark of Mark Simonson.]]></trademark>
<licensee>
<name></name>
</licensee>
</metadata>
<defs >
<font horiz-adv-x="467" id="f6f1bb56-df0a-4a2e-a6a4-402869082280">
<font-face font-family="" panose-1="2 0 5 6 3 0 0 2 0 4" ascent="741" descent="-259" units-per-em="1000" alphabetic="0">
</font-face>
<missing-glyph horiz-adv-x="0" />

<glyph unicode="&#xA;" />
<glyph unicode="&#xD;" horiz-adv-x="0" />
<glyph unicode=" " horiz-adv-x="207" />
<glyph unicode="!" horiz-adv-x="264" d="M64 227L138 667H312L192 227H64ZM87 -12Q52 -12 29 12T6 70Q6 90 13 107T34 138T65 159T103 167Q137 167 160 143T184 85Q184 65 176 48T155 17T124 -4T87 -12Z"  />
<glyph unicode="&quot;" horiz-adv-x="426" d="M112 364Q113 421 114 469Q115 510 116 545T117 588Q118 626 143 651T205 677Q232 677 252 658T272 608Q272 598 270 590T265 576Q263 573 259 562T247 536T232 501T216 463Q197 418 173 364H112ZM306 364Q307 421 308 469Q309 510 310 545T311 588Q311 626 336 651T399 677Q426 677 446 658T466 608Q466 598 464 590T459 576Q457 573 453 562T441 536T426 501T410 463Q391 418 367 364H306Z"  />
<glyph unicode="#" horiz-adv-x="551" d="M163 0L247 166H174L91 0H-14L70 166H-3L42 256H116L193 410H119L163 499H239L322 667H427L343 499H416L499 667H603L519 499H593L550 410H474L396 256H474L429 166H350L267 0H163ZM369 410H297L220 256H292L369 410Z"  />
<glyph unicode="$" horiz-adv-x="518" d="M158 -3Q103 8 59 32T-11 92L83 209Q109 173 154 151T249 129Q283 129 301 147T320 191Q320 209 302 223T258 253T200 284T143 324T98 377T80 450Q80 493 96 532T141 603T213 654T309 677L330 768H435L412 667Q453 656 489 637T551 588L459 472Q431 504 391 520T313 537Q284 537 268 521T251 482Q251 464 268 450T313 420T370 388T428 348T472 295T490 222Q490 176 474 135T428 63T356 12T261 -11L242 -100H137L158 -3Z"  />
<glyph unicode="%" horiz-adv-x="683" d="M76 0L577 667H648L147 0H76ZM474 -12Q412 -12 372 24T332 121Q332 164 346 201T384 264T439 306T505 321Q535 321 561 312T606 285T636 243T647 188Q647 145 633 109T595 45T540 3T474 -12ZM478 75Q491 75 504 83T527 105T544 138T550 179Q550 205 537 219T500 234Q473 234 451 205T429 130Q429 104 442 90T478 75ZM216 343Q186 343 160 352T115 380T86 422T75 477Q75 520 89 557T127 620T182 662T248 677Q278 677 304 668T349 641T379 599T390 544Q390 500 376 464T338 400T283 358T216 343ZM222 431Q235 431 248 439T271 460T287 493T293 535Q293 561 280 575T243 590Q229 590 217 582T194 560T178 527T172 486Q172 460 185 446T222 431Z"  />
<glyph unicode="&amp;" horiz-adv-x="560" d="M342 0Q338 6 335 13T326 27Q294 8 260 -2T188 -12Q147 -12 113 -2T54 28T14 80T0 155Q0 203 14 238T53 301T108 347T172 383Q159 432 159 479Q159 521 174 557T215 620T277 662T352 677Q385 677 413 668T463 642T497 599T510 539Q510 497 494 467T453 415T394 375T327 343Q332 329 338 316T350 289Q358 272 364 256T379 224Q399 251 416 278T446 332L547 269Q521 227 493 188T433 114Q447 87 463 59T498 0H342ZM218 101Q245 101 275 120Q264 142 254 163T236 202Q228 221 221 240T205 278Q181 258 167 234T152 175Q152 141 170 121T218 101ZM294 479Q294 456 298 437Q336 454 360 476T385 531Q385 554 376 564T350 574Q329 574 312 548T294 479Z"  />
<glyph unicode="&apos;" horiz-adv-x="234" d="M112 364Q113 421 114 469Q115 510 116 545T117 588Q118 626 143 651T205 677Q232 677 252 658T272 608Q272 598 270 590T265 576Q263 573 259 562T247 536T232 501T216 463Q197 418 173 364H112Z"  />
<glyph unicode="(" horiz-adv-x="302" d="M88 -199Q56 -142 40 -68T23 82Q23 167 41 249T93 408T174 555T282 685L367 617Q322 555 287 485T226 339T187 186T173 30Q173 11 175 -12T180 -59T187 -106T197 -149L88 -199Z"  />
<glyph unicode=")" horiz-adv-x="302" d="M213 685Q245 628 261 554T278 404Q278 318 260 236T208 78T127 -69T19 -199L-66 -131Q-21 -69 14 1T75 147T114 300T128 455Q128 474 126 497T121 545T114 592T104 635L213 685Z"  />
<glyph unicode="*" horiz-adv-x="343" d="M161 359L191 471L86 424L67 486L173 524L88 583L136 638L213 571L232 677H302L271 564L375 612L396 550L291 511L375 453L327 398L249 464L231 359H161Z"  />
<glyph unicode="+" horiz-adv-x="446" d="M282 294L244 124H148L186 294H40L59 381H205L241 543H337L301 381H447L428 294H282Z"  />
<glyph unicode="&#x2c;" horiz-adv-x="264" d="M189 78Q189 48 177 17T144 -42T95 -94T32 -134L-18 -82Q-5 -76 10 -68T40 -48T66 -25T85 2Q83 1 79 1T73 1Q46 1 26 19T5 73Q5 92 13 109T36 139T67 159T104 167Q137 167 163 145T189 78Z"  />
<glyph unicode="-" horiz-adv-x="272" d="M16 181L43 303H255L228 181H16Z"  />
<glyph unicode="." horiz-adv-x="264" d="M87 -12Q52 -12 29 12T6 70Q6 90 14 107T35 138T65 159T103 167Q138 167 161 143T185 85Q185 65 177 48T156 17T124 -4T87 -12Z"  />
<glyph unicode="/" horiz-adv-x="293" d="M-60 -20L288 687H393L44 -20H-60Z"  />
<glyph unicode="0" horiz-adv-x="549" d="M244 -12Q197 -12 158 4T91 51T47 130T31 238Q31 321 54 400T119 540T218 639T344 677Q390 677 429 661T496 614T540 536T556 428Q556 345 533 266T468 125T369 26T244 -12ZM259 131Q280 131 298 147T332 190T359 250T379 319T391 387T395 445Q395 485 380 509T328 534Q306 534 288 518T255 476T228 415T208 347T196 279T192 221Q192 181 207 156T259 131Z"  />
<glyph unicode="1" horiz-adv-x="412" d="M143 0L244 460L122 358L51 454L312 667H452L305 0H143Z"  />
<glyph unicode="2" horiz-adv-x="536" d="M-14 0L20 154Q113 218 181 265T295 350T362 416T384 474Q384 502 361 518T300 535Q258 535 225 521T162 477L90 589Q133 630 191 653T315 677Q364 677 407 665T483 628T534 569T553 489Q553 443 534 402T478 320T386 236T258 141H480L449 0H-14Z"  />
<glyph unicode="3" horiz-adv-x="533" d="M249 -12Q207 -12 166 -3T90 23T27 66T-17 125L98 216Q122 173 164 152T248 131Q271 131 288 138T316 157T332 183T337 213Q337 237 317 251T249 266Q232 266 213 266T185 265L217 409Q220 409 230 409T251 408T274 408T291 408Q337 408 362 427T387 479Q387 506 362 520T291 534Q257 534 224 522T164 486L96 589Q136 627 191 652T312 677Q366 677 410 666T486 634T535 582T553 511Q553 477 539 448T501 396T447 358T387 338Q439 324 467 288T495 199Q495 154 476 115T423 48T345 4T249 -12Z"  />
<glyph unicode="4" horiz-adv-x="540" d="M240 0L268 128H-7L25 274L333 667H549L461 269H526L495 128H430L402 0H240ZM351 505L169 269H299L351 505Z"  />
<glyph unicode="5" horiz-adv-x="544" d="M254 -12Q161 -12 98 23T0 118L118 212Q138 174 173 153T254 131Q277 131 295 139T326 162T345 195T352 234Q352 265 330 283T266 301Q234 301 212 291T169 261L62 300L143 667H573L541 526H274L244 388Q267 411 293 421T358 431Q393 431 423 420T475 386T509 331T522 256Q522 202 503 154T449 69T365 10T254 -12Z"  />
<glyph unicode="6" horiz-adv-x="542" d="M262 -12Q151 -12 90 52T28 233Q28 283 37 335T66 437T115 530T182 606T267 658T371 677Q437 677 487 654T570 592L469 480Q452 506 424 520T362 534Q336 534 313 523T271 492T238 447T214 395Q211 387 210 381T206 367Q230 398 268 416T349 435Q385 435 417 423T472 389T508 336T522 265Q522 212 503 162T449 74T366 12T262 -12ZM263 131Q284 131 300 141T329 167T347 202T354 239Q354 268 331 287T271 306Q245 306 225 293T188 260Q186 252 186 240T185 217Q185 176 206 154T263 131Z"  />
<glyph unicode="7" horiz-adv-x="490" d="M37 0L347 526H80L111 667H567L542 555L218 0H37Z"  />
<glyph unicode="8" horiz-adv-x="542" d="M250 -12Q198 -12 153 -3T75 27T22 80T3 158Q3 188 13 218T45 275T97 323T172 358Q136 375 112 409T87 488Q87 534 108 569T164 629T243 665T332 677Q375 677 417 668T493 639T548 588T569 512Q569 479 558 450T525 397T475 356T412 331Q457 306 481 268T505 186Q505 141 485 104T431 42T350 2T250 -12ZM305 400Q344 407 372 427T400 484Q400 509 379 523T325 538Q291 538 269 518T246 465Q246 442 265 425T305 400ZM253 126Q272 126 288 132T317 149T337 175T344 208Q344 237 323 255T278 280Q258 277 239 270T206 251T182 223T173 186Q173 157 194 142T253 126Z"  />
<glyph unicode="9" horiz-adv-x="542" d="M318 678Q430 678 491 614T552 433Q552 383 543 331T514 229T465 136T398 60T313 8T209 -11Q143 -11 93 12T10 74L111 186Q128 160 156 146T218 132Q244 132 267 143T309 174T342 219T366 270Q369 278 370 285T374 299Q349 268 311 250T231 231Q195 231 163 243T108 277T72 330T58 401Q58 454 77 504T131 592T214 654T318 678ZM317 535Q296 535 280 525T251 499T233 464T226 427Q226 398 249 379T309 360Q335 360 355 373T392 406Q394 414 394 426T395 449Q395 490 374 512T317 535Z"  />
<glyph unicode=":" horiz-adv-x="264" d="M87 -12Q53 -12 30 12T6 70Q6 90 13 107T34 138T65 159T103 167Q137 167 161 143T185 85Q185 65 177 48T156 17T125 -4T87 -12ZM158 311Q124 311 100 335T76 393Q76 413 84 430T105 461T136 482T174 490Q208 490 231 466T255 408Q255 388 248 371T227 340T196 319T158 311Z"  />
<glyph unicode=";" horiz-adv-x="264" d="M189 78Q189 48 177 17T144 -42T95 -94T32 -134L-18 -82Q-5 -76 10 -68T40 -48T66 -25T85 2Q83 1 79 1T73 1Q46 1 26 19T5 73Q5 92 13 109T36 139T67 159T104 167Q137 167 163 145T189 78ZM158 311Q124 311 101 335T77 393Q77 413 85 430T106 461T136 482T174 490Q209 490 232 466T256 408Q256 388 248 371T227 340T196 319T158 311Z"  />
<glyph unicode="&lt;" horiz-adv-x="446" d="M37 283L60 387L484 548L460 440L148 330L412 221L389 121L37 283Z"  />
<glyph unicode="=" horiz-adv-x="446" d="M59 384L79 471H467L448 384H59ZM18 197L37 284H426L406 197H18Z"  />
<glyph unicode="&gt;" horiz-adv-x="446" d="M1 121L26 230L338 338L74 449L96 548L448 387L425 283L1 121Z"  />
<glyph unicode="?" horiz-adv-x="392" d="M130 211Q125 224 122 241T119 276Q119 312 130 338T159 383T196 417T233 445T261 471T273 501Q273 518 261 528T224 539Q204 539 184 532T146 508L89 616Q131 649 175 663T262 677Q299 677 331 668T389 641T428 598T443 541Q443 501 429 473T394 422T349 383T304 350T269 315T255 274Q255 269 256 261T262 247L130 211ZM152 -12Q118 -12 95 12T71 70Q71 90 79 107T100 138T131 159T169 167Q203 167 226 143T250 85Q250 65 242 48T221 17T190 -4T152 -12Z"  />
<glyph unicode="@" horiz-adv-x="718" d="M333 -70Q270 -70 219 -48T131 14T75 108T55 229Q55 310 85 384T168 514T288 604T433 638Q493 638 543 618T628 561T682 476T702 368Q702 304 685 252T641 163T579 106T509 85Q468 85 444 104T413 153L412 161Q389 127 357 106T285 85Q230 85 195 123T159 236Q159 285 175 332T219 416T285 475T367 498Q404 498 428 481T465 436L475 484H602L553 249Q552 245 551 236T550 222Q550 181 580 181Q592 181 605 193T630 229T649 287T657 367Q657 420 641 462T596 535T524 581T430 597Q362 597 302 567T196 485T124 368T97 232Q97 177 113 129T160 46T236 -9T338 -30Q386 -30 426 -16T505 24L527 -7Q482 -37 435 -53T333 -70ZM346 186Q375 186 393 203T423 239L447 355Q442 370 430 383T394 397Q370 397 351 384T319 349T298 302T291 252Q291 223 305 205T346 186Z"  />
<glyph unicode="A" horiz-adv-x="575" d="M359 0L357 102H167L120 0H-61L283 667H478L528 0H359ZM350 499L231 243H356L350 499Z"  />
<glyph unicode="B" horiz-adv-x="579" d="M-1 0L146 667H415Q460 667 493 654T548 620T582 570T593 511Q593 479 582 448T552 393T505 352T447 332Q492 320 514 283T536 204Q536 169 524 133T487 67T421 19T323 0H-1ZM353 408Q371 408 383 414T404 431T417 454T421 480Q421 503 407 515T368 528H278L251 408H353ZM298 139Q333 139 353 162T374 217Q374 241 361 255T321 269H220L192 139H298Z"  />
<glyph unicode="C" horiz-adv-x="570" d="M295 -12Q236 -12 188 6T105 59T51 142T31 251Q31 332 54 408T122 545T231 641T376 678Q434 678 477 660T549 613T595 546T619 471L466 431Q458 477 434 506T368 535Q330 535 299 509T245 443T210 353T197 255Q197 198 225 165T304 131Q335 131 365 152T416 209L544 141Q496 61 431 25T295 -12Z"  />
<glyph unicode="D" horiz-adv-x="613" d="M-1 0L146 667H375Q420 667 463 650T540 599T594 519T615 411Q615 344 596 272T533 139T415 39T233 0H-1ZM261 141Q308 141 343 165T401 228T437 312T449 403Q449 460 420 493T345 526H277L192 141H261Z"  />
<glyph unicode="E" horiz-adv-x="491" d="M-1 0L146 667H548L516 526H277L252 409H484L453 268H220L192 141H432L401 0H-1Z"  />
<glyph unicode="F" horiz-adv-x="485" d="M-1 0L146 667H548L516 526H277L252 409H484L453 268H220L161 0H-1Z"  />
<glyph unicode="G" horiz-adv-x="598" d="M295 -12Q237 -12 189 6T105 59T51 141T31 251Q31 333 54 410T123 546T234 642T384 678Q435 678 474 663T541 622T586 564T610 496L467 447Q460 482 434 508T368 535Q332 535 301 510T246 446T210 356T197 255Q197 199 224 165T304 131Q331 131 352 142T391 170L406 237H297L329 379H590L530 111Q486 51 426 20T295 -12Z"  />
<glyph unicode="H" horiz-adv-x="625" d="M355 0L415 272H221L161 0H-1L146 667H308L252 414H447L502 667H664L517 0H355Z"  />
<glyph unicode="I" horiz-adv-x="268" d="M-1 0L146 667H308L161 0H-1Z"  />
<glyph unicode="J" horiz-adv-x="427" d="M130 -12Q84 -12 39 1T-35 43L39 169Q52 152 73 142T117 131Q152 131 174 151T204 209L306 667H467L365 204Q340 92 285 40T130 -12Z"  />
<glyph unicode="K" horiz-adv-x="575" d="M346 0L260 248L199 174L161 0H-1L146 667H308L250 402L464 667H661L383 355L527 0H346Z"  />
<glyph unicode="L" horiz-adv-x="455" d="M-1 0L146 667H308L192 141H407L376 0H-1Z"  />
<glyph unicode="M" horiz-adv-x="761" d="M493 0L582 403L358 0H295L250 403L161 0H-1L146 667H356L393 327L584 667H801L654 0H493Z"  />
<glyph unicode="N" horiz-adv-x="624" d="M363 0L240 361L161 0H-1L146 667H311L426 323L502 667H663L516 0H363Z"  />
<glyph unicode="O" horiz-adv-x="633" d="M295 -12Q235 -12 186 7T103 62T50 145T31 251Q31 329 54 405T121 542T230 640T376 678Q436 678 485 659T568 604T621 521T640 415Q640 337 617 261T550 124T442 26T295 -12ZM304 131Q341 131 372 156T426 222T461 312T474 410Q474 466 445 500T366 535Q328 535 297 510T244 444T210 353T197 255Q197 199 225 165T304 131Z"  />
<glyph unicode="P" horiz-adv-x="556" d="M-1 0L146 667H401Q443 667 477 653T535 613T572 555T586 482Q586 439 572 394T525 313T441 253T316 229H211L161 0H-1ZM327 370Q368 370 393 398T418 465Q418 494 402 510T358 526H277L243 370H327Z"  />
<glyph unicode="Q" horiz-adv-x="633" d="M295 -12Q235 -12 186 7T103 62T50 145T31 251Q31 329 54 405T121 542T230 640T376 678Q436 678 485 659T568 604T621 521T640 415Q640 361 629 307T596 203T542 112T467 41L482 2L358 -41L345 -8Q333 -10 321 -11T295 -12ZM382 263L408 194Q439 236 456 294T474 410Q474 466 445 500T366 535Q328 535 297 510T244 444T210 353T197 255Q197 202 222 169T292 131L258 221L382 263Z"  />
<glyph unicode="R" horiz-adv-x="573" d="M315 0L277 229H211L161 0H-1L146 667H392Q432 667 467 653T529 615T570 556T586 480Q586 438 574 400T540 332T492 280T435 249L489 0H315ZM327 370Q369 370 393 397T417 463Q417 494 400 510T357 526H277L243 370H327Z"  />
<glyph unicode="S" horiz-adv-x="511" d="M237 -12Q155 -12 87 16T-17 92L77 209Q103 173 148 151T243 129Q277 129 295 147T314 191Q314 209 296 223T252 253T194 284T137 324T92 377T74 450Q74 495 91 536T141 608T219 659T322 678Q385 678 445 655T545 588L453 472Q425 504 385 520T307 537Q278 537 262 521T245 482Q245 464 262 450T307 420T364 388T422 348T466 295T484 222Q484 174 467 132T417 57T340 7T237 -12Z"  />
<glyph unicode="T" horiz-adv-x="487" d="M109 0L225 526H82L113 667H560L529 526H386L271 0H109Z"  />
<glyph unicode="U" horiz-adv-x="629" d="M294 -12Q236 -12 190 3T113 45T64 111T47 197Q47 205 48 218T52 240L146 667H309L214 235Q213 230 212 223T211 208Q211 176 234 153T300 129Q347 129 373 156T411 235L506 667H669L574 237Q548 119 480 54T294 -12Z"  />
<glyph unicode="V" horiz-adv-x="575" d="M136 0L86 667H255L269 190L494 667H675L331 0H136Z"  />
<glyph unicode="W" horiz-adv-x="793" d="M417 0L431 403L268 0H101L94 667H264L244 242L424 667H548L541 242L708 667H885L584 0H417Z"  />
<glyph unicode="X" horiz-adv-x="575" d="M351 0L283 209L132 0H-61L212 350L97 667H274L333 471L469 667H663L405 333L528 0H351Z"  />
<glyph unicode="Y" horiz-adv-x="557" d="M144 0L203 271L85 667H254L309 419L474 667H658L365 271L306 0H144Z"  />
<glyph unicode="Z" horiz-adv-x="495" d="M-21 0L8 132L309 526H95L126 667H548L519 538L216 141H439L408 0H-21Z"  />
<glyph unicode="[" horiz-adv-x="257" d="M-53 -190L139 678H336L315 584H221L70 -96H164L143 -190H-53Z"  />
<glyph unicode="\" horiz-adv-x="293" d="M93 687H194L234 -20H133L93 687Z"  />
<glyph unicode="]" horiz-adv-x="257" d="M-78 -190L-58 -96H36L187 584H93L114 678H310L117 -190H-78Z"  />
<glyph unicode="^" horiz-adv-x="393" d="M295 333L270 562L145 333H38L238 667H343L393 333H295Z"  />
<glyph unicode="_" horiz-adv-x="422" d="M-87 -134L-65 -40H362L340 -134H-87Z"  />
<glyph unicode="`" horiz-adv-x="228" d="M203 556L101 700H226L297 556H203Z"  />
<glyph unicode="a" horiz-adv-x="516" d="M241 495Q282 495 314 478T364 425L377 483H521L414 0H270L282 56Q255 20 226 4T162 -12Q93 -12 54 33T15 168Q15 218 29 275T71 381T142 462T241 495ZM271 367Q246 367 226 350T193 306T172 249T164 194Q164 157 183 137T233 116Q254 116 273 128T306 161L342 322Q332 342 314 354T271 367Z"  />
<glyph unicode="b" horiz-adv-x="516" d="M275 -12Q233 -12 201 5T151 58L139 0H-5L141 667H286L233 428Q261 463 290 479T354 495Q422 495 461 450T500 315Q500 265 486 208T444 101T374 20T275 -12ZM245 116Q270 116 290 133T323 177T344 233T351 289Q351 326 332 346T282 367Q261 367 243 355T210 322L174 161Q183 140 202 128T245 116Z"  />
<glyph unicode="c" horiz-adv-x="429" d="M228 -12Q180 -12 141 2T75 43T32 108T17 193Q17 251 36 305T90 402T173 469T280 495Q340 495 383 474T449 421L360 327Q349 346 329 356T285 367Q258 367 236 353T198 316T173 264T164 205Q164 160 189 138T252 116Q275 116 293 125T326 150L377 45Q354 22 316 5T228 -12Z"  />
<glyph unicode="d" horiz-adv-x="516" d="M241 495Q282 495 314 478T364 425L418 667H562L414 0H270L282 56Q255 20 226 4T162 -12Q93 -12 54 33T15 168Q15 218 29 275T71 381T142 462T241 495ZM271 367Q246 367 226 350T193 306T172 249T164 194Q164 157 183 137T233 116Q254 116 273 128T306 161L342 322Q332 342 314 354T271 367Z"  />
<glyph unicode="e" horiz-adv-x="484" d="M235 -12Q135 -12 76 41T17 192Q17 246 35 300T86 397T168 468T276 495Q365 495 416 443T467 300Q467 271 462 242T452 195H157Q155 185 155 178Q155 168 160 155T177 130T208 110T254 102Q280 102 306 111T351 135L397 42Q364 16 321 2T235 -12ZM336 292Q339 301 339 314Q339 339 321 360T267 381Q247 381 231 373T203 351T184 322T174 292H336Z"  />
<glyph unicode="f" horiz-adv-x="306" d="M19 0L98 358H36L65 483H126L132 513Q139 547 153 576T188 628T239 664T310 677Q346 677 378 667T431 637L369 544Q353 561 328 561Q305 561 293 548T276 512L270 483H349L320 358H242L164 0H19Z"  />
<glyph unicode="g" horiz-adv-x="516" d="M171 -196Q107 -196 55 -178T-34 -122L43 -21Q63 -47 97 -61T168 -75Q205 -75 233 -53T276 31L287 78Q262 43 231 26T165 9Q133 9 106 19T59 50T28 103T16 181Q16 231 29 286T71 387T141 464T239 495Q256 495 274 491T309 478T340 456T363 425L376 483H520L420 34Q405 -35 379 -80T319 -150T247 -186T171 -196ZM236 137Q257 137 276 150T309 182L340 320Q329 342 310 354T266 367Q242 367 224 352T192 314T173 264T166 211Q166 175 185 156T236 137Z"  />
<glyph unicode="h" horiz-adv-x="518" d="M271 0L337 302Q338 306 339 314T341 326Q341 348 327 357T290 367Q266 367 245 351T208 316L139 0H-5L142 667H286L232 424Q256 450 291 472T373 495Q432 495 464 466T497 390Q497 383 496 374T493 356L415 0H271Z"  />
<glyph unicode="i" horiz-adv-x="241" d="M192 529Q159 529 138 550T116 601Q116 624 125 642T148 672T178 690T211 697Q244 697 265 676T287 626Q287 603 278 585T255 555T225 536T192 529ZM-6 0L101 483H246L139 0H-6Z"  />
<glyph unicode="j" horiz-adv-x="241" d="M-50 -196Q-127 -196 -161 -163L-107 -58Q-99 -67 -89 -71T-66 -75Q-24 -75 -9 -12L101 483H246L135 -12Q126 -54 112 -88T76 -146T23 -183T-50 -196ZM192 529Q159 529 138 550T116 601Q116 624 125 642T148 672T178 690T211 697Q244 697 265 676T287 626Q287 603 278 585T255 555T225 536T192 529Z"  />
<glyph unicode="k" horiz-adv-x="485" d="M268 0L222 178L163 112L139 0H-6L141 667H286L203 294L361 483H533L340 266L434 0H268Z"  />
<glyph unicode="l" horiz-adv-x="241" d="M-6 0L141 667H286L139 0H-6Z"  />
<glyph unicode="m" horiz-adv-x="770" d="M523 0L590 301Q591 305 592 313T594 327Q594 347 582 357T549 367Q526 367 506 351T473 316L403 0H259L325 301Q326 306 327 314T329 328Q329 346 318 356T284 367Q261 367 241 350T208 316L139 0H-6L101 483H246L232 424Q242 436 256 449T287 472T324 488T367 495Q396 495 418 486T454 465T476 438T484 413Q484 412 483 410Q509 443 546 469T631 495Q656 495 677 488T715 468T741 435T751 390Q751 381 750 371T747 356L668 0H523Z"  />
<glyph unicode="n" horiz-adv-x="517" d="M270 0L337 300Q338 305 339 313T341 326Q341 348 327 357T294 367Q267 367 245 351T208 316L139 0H-6L101 483H246L232 424Q256 450 291 472T373 495Q432 495 464 466T497 390Q497 385 496 374T493 356L415 0H270Z"  />
<glyph unicode="o" horiz-adv-x="505" d="M227 -12Q175 -12 136 3T71 45T31 110T17 193Q17 247 35 301T87 398T168 468T276 495Q328 495 367 480T432 438T472 373T486 290Q486 236 468 182T416 85T335 15T227 -12ZM234 116Q259 116 278 134T311 178T332 234T339 288Q339 329 321 348T269 367Q244 367 225 349T192 305T171 249T164 195Q164 154 182 135T234 116Z"  />
<glyph unicode="p" horiz-adv-x="515" d="M275 -12Q233 -12 201 5T151 58L98 -184H-46L101 483H246L233 428Q261 463 290 479T354 495Q422 495 461 450T500 315Q500 265 486 208T444 101T374 20T275 -12ZM245 116Q270 116 290 133T323 177T344 233T351 289Q351 326 332 346T282 367Q261 367 243 355T210 322L174 161Q183 140 202 128T245 116Z"  />
<glyph unicode="q" horiz-adv-x="515" d="M241 495Q282 495 314 478T364 425L377 483H521L373 -184H229L282 56Q255 20 226 4T162 -12Q93 -12 54 33T15 168Q15 218 29 275T71 381T142 462T241 495ZM271 367Q246 367 226 350T193 306T172 249T164 194Q164 157 183 137T233 116Q254 116 273 128T306 161L342 322Q332 342 314 354T271 367Z"  />
<glyph unicode="r" horiz-adv-x="335" d="M-6 0L101 483H246L233 424Q257 456 293 476T378 496L346 354Q340 356 330 358T307 360Q278 360 252 346T207 308L139 0H-6Z"  />
<glyph unicode="s" horiz-adv-x="424" d="M185 -12Q122 -12 67 10T-21 69L56 162Q65 151 79 140T112 119T150 103T192 97Q215 97 229 108T244 136Q244 150 230 160T193 180T146 201T98 228T62 267T47 325Q47 358 59 388T96 443T156 481T239 495Q292 495 342 476T426 421L355 331Q348 340 336 349T308 367T275 380T239 385Q215 385 202 375T188 349Q188 337 203 328T240 310T288 290T336 261T373 220T388 162Q388 127 374 96T334 40T271 2T185 -12Z"  />
<glyph unicode="t" horiz-adv-x="315" d="M186 -12Q120 -12 82 13T43 92Q43 100 44 110T47 132L97 358H35L64 483H125L154 615H299L270 483H348L320 358H242L200 170Q199 165 198 159T197 148Q197 116 233 116Q240 116 247 118T259 123V5Q248 -3 229 -7T186 -12Z"  />
<glyph unicode="u" horiz-adv-x="517" d="M246 483L178 180Q175 166 175 156Q175 136 189 126T224 116Q250 116 271 132T307 167L377 483H521L414 0H270L283 59Q259 33 224 11T143 -12Q84 -12 51 17T18 93Q18 98 19 109T22 127L101 483H246Z"  />
<glyph unicode="v" horiz-adv-x="466" d="M102 0L47 483H196L212 173L368 483H525L256 0H102Z"  />
<glyph unicode="w" horiz-adv-x="714" d="M380 0L368 299L226 0H72L51 483H195V184L338 483H470L483 184L616 483H770L534 0H380Z"  />
<glyph unicode="x" horiz-adv-x="454" d="M251 0L209 145L102 0H-58L135 245L57 483H208L245 347L342 483H502L317 245L403 0H251Z"  />
<glyph unicode="y" horiz-adv-x="466" d="M-3 -62Q3 -65 13 -66T33 -68Q50 -68 60 -61T80 -40L101 -4L47 483H196L212 174L368 483H525L215 -72Q195 -108 175 -132T134 -170T88 -190T35 -196Q12 -196 -11 -193T-49 -183L-3 -62Z"  />
<glyph unicode="z" horiz-adv-x="417" d="M-24 0L-1 107L217 357H55L83 483H436L413 380L191 126H360L333 0H-24Z"  />
<glyph unicode="{" horiz-adv-x="265" d="M120 -190Q94 -190 70 -182T28 -157T-1 -119T-12 -71Q-12 -55 -9 -41L31 139Q32 143 33 147T34 157Q34 178 24 191T-6 205L12 283Q41 283 56 301T78 349L118 529Q135 604 182 641T300 678H344L323 584H280Q233 584 221 529L175 323Q167 290 153 267T110 233Q124 225 131 211T139 177Q139 169 138 161T135 143L95 -37Q94 -42 94 -46T93 -55Q93 -74 104 -85T132 -96H172L151 -190H120Z"  />
<glyph unicode="|" horiz-adv-x="201" d="M73 -20V687H167V-20H73Z"  />
<glyph unicode="}" horiz-adv-x="265" d="M144 678Q170 678 194 669T236 645T265 607T276 558Q276 542 273 529L233 349Q231 339 231 331Q231 310 241 297T270 283L252 205Q223 205 208 187T186 139L146 -41Q129 -117 82 -153T-36 -190H-80L-59 -96H-16Q7 -96 22 -82T44 -42L89 165Q97 198 111 221T154 255Q140 263 133 277T125 311Q125 319 126 327T129 345L169 525Q170 530 171 534T172 543Q172 562 161 573T132 584H92L113 678H144Z"  />
<glyph unicode="~" horiz-adv-x="470" d="M536 657Q528 616 515 573T480 493T428 433T354 409Q320 409 302 421T275 453T264 494T260 536T255 567T239 580Q217 580 196 534T158 408L63 418Q71 459 85 503T120 583T173 643T246 667Q280 667 298 654T325 622T336 581T340 539T345 507T361 494Q382 494 404 540T442 667L536 657Z"  />
<glyph unicode="&#xA0;" horiz-adv-x="207" />
<glyph unicode="&#xA1;" horiz-adv-x="264" d="M199 256L124 -184H-49L71 256H199ZM176 495Q211 495 234 471T257 413Q257 393 250 376T229 345T198 324T160 316Q126 316 102 340T78 398Q78 418 86 435T107 466T138 487T176 495Z"  />
<glyph unicode="&#xA2;" horiz-adv-x="429" d="M143 1Q83 22 50 71T17 193Q17 248 34 299T82 392T157 460T253 493L269 565H373L355 484Q387 475 410 458T449 421L360 327Q349 346 329 356T285 367Q258 367 236 353T198 316T173 264T164 205Q164 160 189 138T252 116Q275 116 293 125T326 150L377 45Q355 24 322 8T245 -11L225 -100H121L143 1Z"  />
<glyph unicode="&#xA3;" horiz-adv-x="506" d="M53 364H105Q99 383 94 403T89 449Q89 499 110 541T167 613T247 660T341 677Q381 677 416 668T480 641T527 595T552 530L410 480Q402 546 345 546Q328 546 313 537T287 511T270 473T263 427Q263 409 267 394T275 364H380L360 274H278Q270 232 248 199T197 149Q220 157 236 157Q255 157 269 153T297 144T324 135T354 131Q379 131 395 140T426 162L449 33Q431 13 403 1T333 -12Q302 -12 276 -6T225 9T180 23T137 30Q114 30 91 22T39 -7L13 101Q64 127 96 170T129 265V274H33L53 364Z"  />
<glyph unicode="&#xA4;" horiz-adv-x="551" d="M272 92Q204 92 155 119L66 46L-8 139L75 207Q59 247 59 293Q59 347 76 396T127 484L73 555L169 632L226 556Q269 573 317 573Q352 573 381 566T434 545L523 618L598 527L513 457Q530 415 530 370Q530 317 512 268T461 180L515 112L420 35L362 109Q320 92 272 92ZM202 302Q202 267 221 242T280 217Q303 217 322 228T356 259T379 305T387 361Q387 397 369 422T309 448Q285 448 266 437T232 405T210 359T202 302Z"  />
<glyph unicode="&#xA5;" horiz-adv-x="557" d="M144 0L168 112H-5L15 199H187L203 271H31L50 358H177L85 667H254L309 419L474 667H658L429 358H557L537 271H365L349 199H521L502 112H330L306 0H144Z"  />
<glyph unicode="&#xA6;" horiz-adv-x="201" d="M73 -20V296H167V-20H73ZM73 371V687H167V371H73Z"  />
<glyph unicode="&#xA7;" horiz-adv-x="429" d="M425 340Q425 289 397 249T318 189Q344 172 357 146T370 93Q370 56 355 25T314 -30T251 -67T172 -81Q104 -81 47 -62T-43 -5L34 84Q56 55 91 38T167 21Q196 21 212 36T228 72Q228 90 214 101T178 123T131 145T85 172T49 211T34 269Q34 319 63 356T148 412Q121 428 105 455T89 514Q89 550 103 580T143 631T204 665T279 677Q350 677 397 658T475 607L401 528Q381 551 350 564T287 577Q258 577 244 563T229 530Q229 514 243 503T280 482T327 460T374 433T410 395T425 340ZM283 305Q283 328 270 342T240 364Q204 357 189 339T174 297Q174 258 229 236Q257 245 270 264T283 305Z"  />
<glyph unicode="&#xA8;" horiz-adv-x="295" d="M402 621Q402 605 395 590T376 564T349 546T317 539Q289 539 270 557T251 605Q251 621 258 636T277 663T304 681T335 688Q364 688 383 669T402 621ZM208 621Q208 605 201 590T182 564T155 546T124 539Q95 539 76 557T57 605Q57 621 64 636T83 663T110 681T142 688Q170 688 189 669T208 621Z"  />
<glyph unicode="&#xA9;" horiz-adv-x="778" d="M754 334Q754 263 727 200T653 90T543 16T408 -11Q337 -11 274 16T165 90T91 200T64 334Q64 406 91 468T164 578T274 652T408 679Q480 679 543 652T653 578T727 469T754 334ZM716 334Q716 397 692 453T625 550T527 616T408 641Q345 641 290 617T192 551T126 453T102 334Q102 271 126 215T192 118T289 52T408 27Q471 27 527 51T625 117T691 215T716 334ZM533 178Q506 155 470 140T393 124Q349 124 314 138T254 176T216 234T202 307Q202 358 221 401T273 477T347 527T435 545Q486 545 527 525T595 464L555 435Q537 468 506 485T432 502Q399 502 367 488T309 448T267 387T251 309Q251 280 260 255T288 209T333 178T394 166Q426 166 456 180T507 214L533 178Z"  />
<glyph unicode="&#xAA;" horiz-adv-x="369" d="M249 567Q233 567 220 557T196 529T181 492T175 451Q175 425 187 413T220 400Q233 400 245 408T267 428L292 542Q286 553 274 560T249 567ZM417 640L348 326H244L252 362Q233 338 214 328T171 318Q129 318 99 347T69 440Q69 478 80 515T111 582T160 630T221 648Q247 648 269 638T306 605L314 640H417Z"  />
<glyph unicode="&#xAB;" horiz-adv-x="493" d="M114 63L29 243L194 420H317L149 239L231 63H114ZM301 63L216 243L381 420H505L337 239L419 63H301Z"  />
<glyph unicode="&#xAC;" horiz-adv-x="453" d="M406 197H317L357 384H59L79 471H467L406 197Z"  />
<glyph unicode="&#xAD;" horiz-adv-x="272" d="M16 181L43 303H255L228 181H16Z"  />
<glyph unicode="&#xAE;" horiz-adv-x="494" d="M508 465Q508 421 492 383T446 315T378 270T295 253Q251 253 213 269T146 315T101 382T84 465Q84 509 100 548T146 615T213 660T296 677Q340 677 379 661T446 616T491 548T508 465ZM475 465Q475 502 461 535T423 592T365 630T295 644Q258 644 226 630T169 592T131 535T117 465Q117 428 131 396T169 339T225 300T295 286Q332 286 365 300T422 338T461 395T475 465ZM328 343L286 439H244L223 343H187L240 586H334Q366 586 386 568T406 522Q406 504 399 489T381 463T355 446T326 440L370 343H328ZM368 519Q368 536 358 546T326 556H270L250 470H314Q338 470 353 484T368 519Z"  />
<glyph unicode="&#xAF;" horiz-adv-x="313" d="M70 558L87 639H399L382 558H70Z"  />
<glyph unicode="&#xB0;" horiz-adv-x="317" d="M363 537Q363 508 352 483T322 439T278 409T223 398Q194 398 169 409T125 438T95 482T84 537Q84 566 95 591T124 636T168 666T223 677Q252 677 277 666T322 636T352 592T363 537ZM287 537Q287 563 268 582T223 601Q197 601 179 582T161 537Q161 511 178 493T222 474Q248 474 267 492T287 537Z"  />
<glyph unicode="&#xB1;" horiz-adv-x="446" d="M286 312L248 142H152L189 312H44L63 399H209L245 561H341L305 399H451L432 312H286ZM-23 9L-4 96H384L365 9H-23Z"  />
<glyph unicode="&#xB2;" horiz-adv-x="355" d="M74 421L93 504Q165 552 210 583T279 636T313 673T322 703Q322 721 308 731T271 742Q244 742 219 731T176 699L129 770Q158 796 197 811T278 827Q311 827 339 820T388 797T420 761T432 713Q432 687 420 663T384 615T324 565T239 506H390L371 421H74Z"  />
<glyph unicode="&#xB3;" horiz-adv-x="355" d="M398 536Q398 513 388 492T358 453T310 425T245 414Q189 414 144 433T78 486L150 550Q165 524 189 512T239 499Q267 499 279 514T292 547Q292 565 275 573T229 582Q221 582 211 582T196 581L215 665Q218 665 224 665T238 664T253 664T265 664Q294 664 308 675T323 707Q323 724 306 733T264 742Q241 742 219 734T178 707L134 771Q163 798 199 812T275 827Q346 827 389 800T432 723Q432 706 426 689T406 657T374 632T328 620Q361 611 379 589T398 536Z"  />
<glyph unicode="&#xB4;" horiz-adv-x="228" d="M163 556H67L202 700H329L163 556Z"  />
<glyph unicode="&#xB5;" horiz-adv-x="530" d="M98 -184H-47L102 483H247L178 177Q172 147 183 131T221 115Q248 115 270 131T306 166L376 483H521L448 151Q440 116 470 116Q479 116 487 118L470 -3Q458 -7 440 -9T403 -12Q349 -12 325 9T298 75Q277 35 246 12T182 -12Q154 -12 139 3L98 -184Z"  />
<glyph unicode="&#xB6;" horiz-adv-x="449" d="M265 -100L421 599H346L190 -100H122L216 323Q188 323 163 334T120 367T90 416T79 479Q79 514 93 548T134 608T195 651T273 667H503L333 -100H265Z"  />
<glyph unicode="&#xB7;" horiz-adv-x="264" d="M124 155Q89 155 66 179T42 237Q42 257 50 274T71 305T102 327T140 335Q174 335 197 311T221 252Q221 232 213 215T192 184T161 163T124 155Z"  />
<glyph unicode="&#xB8;" horiz-adv-x="210" d="M22 -197Q-14 -197 -43 -186T-89 -156L-52 -104Q-38 -120 -19 -129T22 -139Q40 -139 51 -130T63 -106Q63 -98 57 -92T40 -86Q25 -86 15 -99L-29 -70L20 11H88L49 -50Q62 -40 75 -40Q99 -40 115 -56T132 -102Q132 -145 101 -171T22 -197Z"  />
<glyph unicode="&#xB9;" horiz-adv-x="285" d="M166 421L223 680L150 621L102 685L270 821H362L274 421H166Z"  />
<glyph unicode="&#xBA;" horiz-adv-x="361" d="M216 318Q147 318 109 356T70 454Q70 492 83 527T121 589T178 632T249 648Q319 648 357 610T395 511Q395 473 382 439T344 377T288 334T216 318ZM220 400Q238 400 251 412T273 443T286 481T290 515Q290 539 278 551T245 564Q227 564 214 552T192 521T180 484T176 450Q176 400 220 400Z"  />
<glyph unicode="&#xBB;" horiz-adv-x="493" d="M192 420L277 240L112 63H-11L158 245L75 420H192ZM380 420L465 240L300 63H176L345 245L262 420H380Z"  />
<glyph unicode="&#xBC;" horiz-adv-x="775" d="M132 267L189 526L116 467L68 531L236 667H328L240 267H132ZM682 81L665 0H558L575 81H401L418 158L612 400H753L701 165H742L723 81H682ZM623 294L519 165H594L623 294ZM180 0H109L610 667H682L180 0Z"  />
<glyph unicode="&#xBD;" horiz-adv-x="809" d="M132 267L189 526L116 467L68 531L236 667H328L240 267H132ZM435 0L454 83Q526 131 571 162T640 215T674 252T683 282Q683 300 669 310T632 321Q605 321 580 310T537 278L490 349Q519 375 558 390T639 406Q672 406 700 399T749 376T781 340T793 292Q793 266 781 242T745 194T685 144T600 85H751L732 0H435ZM180 0H109L610 667H682L180 0Z"  />
<glyph unicode="&#xBE;" horiz-adv-x="831" d="M738 81L721 0H614L631 81H457L474 158L668 400H809L757 165H798L779 81H738ZM679 294L575 165H650L679 294ZM237 0H166L667 667H739L237 0ZM364 382Q364 359 354 338T324 299T276 271T211 260Q155 260 110 279T44 332L116 396Q131 370 155 358T205 345Q233 345 245 360T258 393Q258 411 241 419T195 428Q187 428 177 428T162 427L181 511Q184 511 190 511T204 510T219 510T231 510Q260 510 274 521T289 553Q289 570 272 579T230 588Q207 588 185 580T144 553L100 617Q129 644 165 658T241 673Q312 673 355 646T398 569Q398 552 392 535T372 503T340 478T294 466Q327 457 345 435T364 382Z"  />
<glyph unicode="&#xBF;" horiz-adv-x="347" d="M261 271Q266 258 268 241T271 207Q271 171 260 145T231 99T195 65T158 37T130 11T118 -19Q118 -36 129 -46T167 -56Q187 -56 207 -49T245 -26L301 -134Q260 -167 216 -181T129 -195Q92 -195 59 -186T2 -159T-37 -116T-52 -59Q-52 -19 -38 9T-3 60T42 99T87 132T122 167T136 208Q136 213 135 221T129 235L261 271ZM239 494Q273 494 296 470T320 412Q320 392 312 375T291 344T260 323T222 315Q188 315 165 339T141 398Q141 417 149 434T170 465T201 486T239 494Z"  />
<glyph unicode="&#xC0;" horiz-adv-x="575" d="M359 0L357 102H167L120 0H-61L283 667H478L528 0H359ZM350 499L231 243H356L350 499ZM356 723L254 867H379L450 723H356Z"  />
<glyph unicode="&#xC1;" horiz-adv-x="575" d="M359 0L357 102H167L120 0H-61L283 667H478L528 0H359ZM350 499L231 243H356L350 499ZM430 723H334L469 867H596L430 723Z"  />
<glyph unicode="&#xC2;" horiz-adv-x="575" d="M454 723L412 806L337 723H253L360 867H488L534 723H454ZM359 0L357 102H167L120 0H-61L283 667H478L528 0H359ZM350 499L231 243H356L350 499Z"  />
<glyph unicode="&#xC3;" horiz-adv-x="575" d="M359 0L357 102H167L120 0H-61L283 667H478L528 0H359ZM350 499L231 243H356L350 499ZM456 721Q432 721 418 730T395 750T376 771T353 780Q328 780 317 727H243Q256 790 283 825T360 861Q384 861 398 852T421 831T440 811T464 801Q486 801 499 855H573Q559 792 532 757T456 721Z"  />
<glyph unicode="&#xC4;" horiz-adv-x="575" d="M578 788Q578 772 571 757T552 731T525 713T493 706Q465 706 446 724T427 772Q427 788 434 803T453 830T480 848T511 855Q540 855 559 836T578 788ZM384 788Q384 772 377 757T358 731T331 713T300 706Q271 706 252 724T233 772Q233 788 240 803T259 830T286 848T318 855Q346 855 365 836T384 788ZM359 0L357 102H167L120 0H-61L283 667H478L528 0H359ZM350 499L231 243H356L350 499Z"  />
<glyph unicode="&#xC5;" horiz-adv-x="575" d="M359 0L357 102H167L120 0H-61L283 667H478L528 0H359ZM350 499L231 243H356L350 499ZM398 688Q357 688 333 713T308 779Q308 801 317 821T341 857T376 881T418 890Q459 890 483 865T508 799Q508 777 499 757T475 722T440 697T398 688ZM405 751Q422 751 434 763T446 793Q446 808 437 818T412 828Q395 828 383 816T371 786Q371 770 380 761T405 751Z"  />
<glyph unicode="&#xC6;" horiz-adv-x="806" d="M320 0L342 102H182L117 0H-62L399 667H868L837 526H598L572 409H805L773 268H541L513 141H752L721 0H320ZM427 488L271 243H374L427 488Z"  />
<glyph unicode="&#xC7;" horiz-adv-x="570" d="M233 -197Q197 -197 168 -186T122 -156L159 -104Q173 -120 192 -129T233 -139Q251 -139 262 -130T274 -106Q274 -98 268 -92T251 -86Q236 -86 226 -99L182 -70L222 -4Q134 16 83 82T31 251Q31 332 54 408T122 545T231 641T376 678Q434 678 477 660T549 613T595 546T619 471L466 431Q458 477 434 506T368 535Q330 535 299 509T245 443T210 353T197 255Q197 198 225 165T304 131Q335 131 365 152T416 209L544 141Q496 61 431 25T295 -12H284L260 -50Q273 -40 286 -40Q310 -40 326 -56T343 -102Q343 -145 312 -171T233 -197Z"  />
<glyph unicode="&#xC8;" horiz-adv-x="491" d="M-1 0L146 667H548L516 526H277L252 409H484L453 268H220L192 141H432L401 0H-1ZM323 723L221 867H346L417 723H323Z"  />
<glyph unicode="&#xC9;" horiz-adv-x="491" d="M397 723H301L436 867H563L397 723ZM-1 0L146 667H548L516 526H277L252 409H484L453 268H220L192 141H432L401 0H-1Z"  />
<glyph unicode="&#xCA;" horiz-adv-x="491" d="M420 723L378 806L303 723H219L326 867H454L500 723H420ZM-1 0L146 667H548L516 526H277L252 409H484L453 268H220L192 141H432L401 0H-1Z"  />
<glyph unicode="&#xCB;" horiz-adv-x="491" d="M544 788Q544 772 537 757T518 731T491 713T459 706Q431 706 412 724T393 772Q393 788 400 803T419 830T446 848T477 855Q506 855 525 836T544 788ZM350 788Q350 772 343 757T324 731T297 713T266 706Q237 706 218 724T199 772Q199 788 206 803T225 830T252 848T284 855Q312 855 331 836T350 788ZM-1 0L146 667H548L516 526H277L252 409H484L453 268H220L192 141H432L401 0H-1Z"  />
<glyph unicode="&#xCC;" horiz-adv-x="268" d="M-1 0L146 667H308L161 0H-1ZM203 723L101 867H226L297 723H203Z"  />
<glyph unicode="&#xCD;" horiz-adv-x="268" d="M-1 0L146 667H308L161 0H-1ZM276 723H180L315 867H442L276 723Z"  />
<glyph unicode="&#xCE;" horiz-adv-x="268" d="M300 723L258 806L183 723H99L206 867H334L380 723H300ZM-1 0L146 667H308L161 0H-1Z"  />
<glyph unicode="&#xCF;" horiz-adv-x="268" d="M425 788Q425 772 418 757T399 731T372 713T340 706Q312 706 293 724T274 772Q274 788 281 803T300 830T327 848T358 855Q387 855 406 836T425 788ZM231 788Q231 772 224 757T205 731T178 713T147 706Q118 706 99 724T80 772Q80 788 87 803T106 830T133 848T165 855Q193 855 212 836T231 788ZM-1 0L146 667H308L161 0H-1Z"  />
<glyph unicode="&#xD0;" horiz-adv-x="637" d="M23 0L82 269H16L44 398H111L170 667H399Q444 667 487 650T564 599T618 519T639 411Q639 344 620 272T557 139T439 39T257 0H23ZM244 269L216 141H285Q332 141 367 165T425 228T461 312T473 403Q473 460 444 493T369 526H301L273 398H373L344 269H244Z"  />
<glyph unicode="&#xD1;" horiz-adv-x="624" d="M481 721Q457 721 443 730T420 750T401 771T378 780Q353 780 342 727H268Q281 790 308 825T385 861Q409 861 423 852T446 831T465 811T489 801Q511 801 524 855H598Q584 792 557 757T481 721ZM363 0L240 361L161 0H-1L146 667H311L426 323L502 667H663L516 0H363Z"  />
<glyph unicode="&#xD2;" horiz-adv-x="633" d="M385 723L283 867H408L479 723H385ZM295 -12Q235 -12 186 7T103 62T50 145T31 251Q31 329 54 405T121 542T230 640T376 678Q436 678 485 659T568 604T621 521T640 415Q640 337 617 261T550 124T442 26T295 -12ZM304 131Q341 131 372 156T426 222T461 312T474 410Q474 466 445 500T366 535Q328 535 297 510T244 444T210 353T197 255Q197 199 225 165T304 131Z"  />
<glyph unicode="&#xD3;" horiz-adv-x="633" d="M458 723H362L497 867H624L458 723ZM295 -12Q235 -12 186 7T103 62T50 145T31 251Q31 329 54 405T121 542T230 640T376 678Q436 678 485 659T568 604T621 521T640 415Q640 337 617 261T550 124T442 26T295 -12ZM304 131Q341 131 372 156T426 222T461 312T474 410Q474 466 445 500T366 535Q328 535 297 510T244 444T210 353T197 255Q197 199 225 165T304 131Z"  />
<glyph unicode="&#xD4;" horiz-adv-x="633" d="M483 723L441 806L366 723H282L389 867H517L563 723H483ZM295 -12Q235 -12 186 7T103 62T50 145T31 251Q31 329 54 405T121 542T230 640T376 678Q436 678 485 659T568 604T621 521T640 415Q640 337 617 261T550 124T442 26T295 -12ZM304 131Q341 131 372 156T426 222T461 312T474 410Q474 466 445 500T366 535Q328 535 297 510T244 444T210 353T197 255Q197 199 225 165T304 131Z"  />
<glyph unicode="&#xD5;" horiz-adv-x="633" d="M295 -12Q235 -12 186 7T103 62T50 145T31 251Q31 329 54 405T121 542T230 640T376 678Q436 678 485 659T568 604T621 521T640 415Q640 337 617 261T550 124T442 26T295 -12ZM304 131Q341 131 372 156T426 222T461 312T474 410Q474 466 445 500T366 535Q328 535 297 510T244 444T210 353T197 255Q197 199 225 165T304 131ZM485 721Q461 721 447 730T424 750T405 771T382 780Q357 780 346 727H272Q285 790 312 825T389 861Q413 861 427 852T450 831T469 811T493 801Q515 801 528 855H602Q588 792 561 757T485 721Z"  />
<glyph unicode="&#xD6;" horiz-adv-x="633" d="M607 788Q607 772 600 757T581 731T554 713T522 706Q494 706 475 724T456 772Q456 788 463 803T482 830T509 848T540 855Q569 855 588 836T607 788ZM413 788Q413 772 406 757T387 731T360 713T329 706Q300 706 281 724T262 772Q262 788 269 803T288 830T315 848T347 855Q375 855 394 836T413 788ZM295 -12Q235 -12 186 7T103 62T50 145T31 251Q31 329 54 405T121 542T230 640T376 678Q436 678 485 659T568 604T621 521T640 415Q640 337 617 261T550 124T442 26T295 -12ZM304 131Q341 131 372 156T426 222T461 312T474 410Q474 466 445 500T366 535Q328 535 297 510T244 444T210 353T197 255Q197 199 225 165T304 131Z"  />
<glyph unicode="&#xD7;" horiz-adv-x="446" d="M235 272L88 152L35 219L183 340L93 454L162 511L250 396L397 516L451 449L305 328L393 214L324 157L235 272Z"  />
<glyph unicode="&#xD8;" horiz-adv-x="633" d="M295 -12Q244 -12 201 1T125 41L89 0H-14L73 98Q31 163 31 251Q31 329 54 405T121 542T230 640T376 678Q425 678 466 665T540 628L574 667H676L593 573Q616 541 628 501T640 415Q640 337 617 261T550 124T442 26T295 -12ZM304 131Q341 131 372 156T426 222T461 312T474 410Q474 417 474 423T472 435L230 160Q257 131 304 131ZM197 239L435 510Q407 535 366 535Q328 535 297 510T244 444T210 353T197 255V239Z"  />
<glyph unicode="&#xD9;" horiz-adv-x="629" d="M294 -12Q236 -12 190 3T113 45T64 111T47 197Q47 205 48 218T52 240L146 667H309L214 235Q213 230 212 223T211 208Q211 176 234 153T300 129Q347 129 373 156T411 235L506 667H669L574 237Q548 119 480 54T294 -12ZM383 723L281 867H406L477 723H383Z"  />
<glyph unicode="&#xDA;" horiz-adv-x="629" d="M456 723H360L495 867H622L456 723ZM294 -12Q236 -12 190 3T113 45T64 111T47 197Q47 205 48 218T52 240L146 667H309L214 235Q213 230 212 223T211 208Q211 176 234 153T300 129Q347 129 373 156T411 235L506 667H669L574 237Q548 119 480 54T294 -12Z"  />
<glyph unicode="&#xDB;" horiz-adv-x="629" d="M480 723L438 806L363 723H279L386 867H514L560 723H480ZM294 -12Q236 -12 190 3T113 45T64 111T47 197Q47 205 48 218T52 240L146 667H309L214 235Q213 230 212 223T211 208Q211 176 234 153T300 129Q347 129 373 156T411 235L506 667H669L574 237Q548 119 480 54T294 -12Z"  />
<glyph unicode="&#xDC;" horiz-adv-x="629" d="M605 788Q605 772 598 757T579 731T552 713T520 706Q492 706 473 724T454 772Q454 788 461 803T480 830T507 848T538 855Q567 855 586 836T605 788ZM411 788Q411 772 404 757T385 731T358 713T327 706Q298 706 279 724T260 772Q260 788 267 803T286 830T313 848T345 855Q373 855 392 836T411 788ZM294 -12Q236 -12 190 3T113 45T64 111T47 197Q47 205 48 218T52 240L146 667H309L214 235Q213 230 212 223T211 208Q211 176 234 153T300 129Q347 129 373 156T411 235L506 667H669L574 237Q548 119 480 54T294 -12Z"  />
<glyph unicode="&#xDD;" horiz-adv-x="557" d="M144 0L203 271L85 667H254L309 419L474 667H658L365 271L306 0H144ZM421 723H325L460 867H587L421 723Z"  />
<glyph unicode="&#xDE;" horiz-adv-x="556" d="M-1 0L146 667H308L285 563H381Q421 563 454 549T512 510T549 452T563 379Q563 335 548 290T501 208T417 148T293 125H188L161 0H-1ZM303 266Q324 266 341 274T370 295T388 325T395 361Q395 390 378 406T335 422H254L220 266H303Z"  />
<glyph unicode="&#xDF;" horiz-adv-x="607" d="M577 162Q577 129 563 98T524 43T462 3T382 -12Q321 -12 273 6T189 66L262 158Q282 133 309 117T375 100Q396 100 411 112T426 141Q426 154 414 163T383 181T343 200T303 224T273 259T260 310Q260 360 282 388T331 436T380 470T402 508Q402 528 383 541T335 554Q264 554 244 469L141 0H-3L100 469Q109 512 128 549T179 615T252 660T348 677Q389 677 426 666T492 636T538 588T555 527Q555 479 532 450T480 402T429 368T405 334Q405 322 417 314T449 298T491 280T532 255T564 217T577 162Z"  />
<glyph unicode="&#xE0;" horiz-adv-x="516" d="M241 495Q282 495 314 478T364 425L377 483H521L414 0H270L282 56Q255 20 226 4T162 -12Q93 -12 54 33T15 168Q15 218 29 275T71 381T142 462T241 495ZM271 367Q246 367 226 350T193 306T172 249T164 194Q164 157 183 137T233 116Q254 116 273 128T306 161L342 322Q332 342 314 354T271 367ZM286 556L184 700H309L380 556H286Z"  />
<glyph unicode="&#xE1;" horiz-adv-x="516" d="M241 495Q282 495 314 478T364 425L377 483H521L414 0H270L282 56Q255 20 226 4T162 -12Q93 -12 54 33T15 168Q15 218 29 275T71 381T142 462T241 495ZM271 367Q246 367 226 350T193 306T172 249T164 194Q164 157 183 137T233 116Q254 116 273 128T306 161L342 322Q332 342 314 354T271 367ZM360 556H264L399 700H526L360 556Z"  />
<glyph unicode="&#xE2;" horiz-adv-x="516" d="M241 495Q282 495 314 478T364 425L377 483H521L414 0H270L282 56Q255 20 226 4T162 -12Q93 -12 54 33T15 168Q15 218 29 275T71 381T142 462T241 495ZM271 367Q246 367 226 350T193 306T172 249T164 194Q164 157 183 137T233 116Q254 116 273 128T306 161L342 322Q332 342 314 354T271 367ZM383 556L341 639L266 556H182L289 700H417L463 556H383Z"  />
<glyph unicode="&#xE3;" horiz-adv-x="516" d="M241 495Q282 495 314 478T364 425L377 483H521L414 0H270L282 56Q255 20 226 4T162 -12Q93 -12 54 33T15 168Q15 218 29 275T71 381T142 462T241 495ZM271 367Q246 367 226 350T193 306T172 249T164 194Q164 157 183 137T233 116Q254 116 273 128T306 161L342 322Q332 342 314 354T271 367ZM386 554Q362 554 348 563T325 583T306 604T283 613Q258 613 247 560H173Q186 623 213 658T290 694Q314 694 328 685T351 664T370 644T394 634Q416 634 429 688H503Q489 625 462 590T386 554Z"  />
<glyph unicode="&#xE4;" horiz-adv-x="516" d="M241 495Q282 495 314 478T364 425L377 483H521L414 0H270L282 56Q255 20 226 4T162 -12Q93 -12 54 33T15 168Q15 218 29 275T71 381T142 462T241 495ZM271 367Q246 367 226 350T193 306T172 249T164 194Q164 157 183 137T233 116Q254 116 273 128T306 161L342 322Q332 342 314 354T271 367ZM508 621Q508 605 501 590T482 564T455 546T423 539Q395 539 376 557T357 605Q357 621 364 636T383 663T410 681T441 688Q470 688 489 669T508 621ZM314 621Q314 605 307 590T288 564T261 546T230 539Q201 539 182 557T163 605Q163 621 170 636T189 663T216 681T248 688Q276 688 295 669T314 621Z"  />
<glyph unicode="&#xE5;" horiz-adv-x="516" d="M241 495Q282 495 314 478T364 425L377 483H521L414 0H270L282 56Q255 20 226 4T162 -12Q93 -12 54 33T15 168Q15 218 29 275T71 381T142 462T241 495ZM271 367Q246 367 226 350T193 306T172 249T164 194Q164 157 183 137T233 116Q254 116 273 128T306 161L342 322Q332 342 314 354T271 367ZM329 524Q288 524 264 549T239 615Q239 637 248 657T272 693T307 717T349 726Q390 726 414 701T439 635Q439 613 430 593T406 558T371 533T329 524ZM336 587Q353 587 365 599T377 629Q377 644 368 654T343 664Q326 664 314 652T302 622Q302 606 311 597T336 587Z"  />
<glyph unicode="&#xE6;" horiz-adv-x="787" d="M271 367Q246 367 226 350T193 306T172 249T164 194Q164 157 183 137T233 116Q254 116 273 128T306 161L342 322Q332 342 314 354T271 367ZM414 0H270L282 56Q255 20 226 4T162 -12Q93 -12 54 33T15 168Q15 218 29 275T71 381T142 462T241 495Q282 495 314 478T364 425L377 483H521L511 436Q531 459 561 477T629 495Q698 494 734 450T771 311Q771 281 766 249T756 195H461Q460 191 460 187T460 178Q460 168 465 156T483 132T515 113T562 105Q588 105 612 114T656 139L701 39Q669 13 633 1T565 -12Q508 -12 476 11T429 69L414 0ZM640 292Q642 297 642 302T642 313Q642 339 625 360T572 381Q552 381 536 373T509 351T490 322T479 292H640Z"  />
<glyph unicode="&#xE7;" horiz-adv-x="429" d="M175 -197Q139 -197 110 -186T64 -156L101 -104Q115 -120 134 -129T175 -139Q193 -139 204 -130T216 -106Q216 -98 210 -92T193 -86Q178 -86 168 -99L124 -70L163 -4Q94 13 56 64T17 193Q17 251 36 305T90 402T173 469T280 495Q340 495 383 474T449 421L360 327Q349 346 329 356T285 367Q258 367 236 353T198 316T173 264T164 205Q164 160 189 138T252 116Q275 116 293 125T326 150L377 45Q354 22 316 5T228 -12H226L202 -50Q215 -40 228 -40Q252 -40 268 -56T285 -102Q285 -145 254 -171T175 -197Z"  />
<glyph unicode="&#xE8;" horiz-adv-x="484" d="M235 -12Q135 -12 76 41T17 192Q17 246 35 300T86 397T168 468T276 495Q365 495 416 443T467 300Q467 271 462 242T452 195H157Q155 185 155 178Q155 168 160 155T177 130T208 110T254 102Q280 102 306 111T351 135L397 42Q364 16 321 2T235 -12ZM336 292Q339 301 339 314Q339 339 321 360T267 381Q247 381 231 373T203 351T184 322T174 292H336ZM287 556L185 700H310L381 556H287Z"  />
<glyph unicode="&#xE9;" horiz-adv-x="484" d="M360 556H264L399 700H526L360 556ZM235 -12Q135 -12 76 41T17 192Q17 246 35 300T86 397T168 468T276 495Q365 495 416 443T467 300Q467 271 462 242T452 195H157Q155 185 155 178Q155 168 160 155T177 130T208 110T254 102Q280 102 306 111T351 135L397 42Q364 16 321 2T235 -12ZM336 292Q339 301 339 314Q339 339 321 360T267 381Q247 381 231 373T203 351T184 322T174 292H336Z"  />
<glyph unicode="&#xEA;" horiz-adv-x="484" d="M383 556L341 639L266 556H182L289 700H417L463 556H383ZM235 -12Q135 -12 76 41T17 192Q17 246 35 300T86 397T168 468T276 495Q365 495 416 443T467 300Q467 271 462 242T452 195H157Q155 185 155 178Q155 168 160 155T177 130T208 110T254 102Q280 102 306 111T351 135L397 42Q364 16 321 2T235 -12ZM336 292Q339 301 339 314Q339 339 321 360T267 381Q247 381 231 373T203 351T184 322T174 292H336Z"  />
<glyph unicode="&#xEB;" horiz-adv-x="484" d="M509 621Q509 605 502 590T483 564T456 546T424 539Q396 539 377 557T358 605Q358 621 365 636T384 663T411 681T442 688Q471 688 490 669T509 621ZM315 621Q315 605 308 590T289 564T262 546T231 539Q202 539 183 557T164 605Q164 621 171 636T190 663T217 681T249 688Q277 688 296 669T315 621ZM235 -12Q135 -12 76 41T17 192Q17 246 35 300T86 397T168 468T276 495Q365 495 416 443T467 300Q467 271 462 242T452 195H157Q155 185 155 178Q155 168 160 155T177 130T208 110T254 102Q280 102 306 111T351 135L397 42Q364 16 321 2T235 -12ZM336 292Q339 301 339 314Q339 339 321 360T267 381Q247 381 231 373T203 351T184 322T174 292H336Z"  />
<glyph unicode="&#xEC;" horiz-adv-x="241" d="M-6 0L101 483H246L139 0H-6ZM155 556L53 700H178L249 556H155Z"  />
<glyph unicode="&#xED;" horiz-adv-x="241" d="M226 556H130L265 700H392L226 556ZM-6 0L101 483H246L139 0H-6Z"  />
<glyph unicode="&#xEE;" horiz-adv-x="241" d="M252 556L210 639L135 556H51L158 700H286L332 556H252ZM-6 0L101 483H246L139 0H-6Z"  />
<glyph unicode="&#xEF;" horiz-adv-x="241" d="M377 621Q377 605 370 590T351 564T324 546T292 539Q264 539 245 557T226 605Q226 621 233 636T252 663T279 681T310 688Q339 688 358 669T377 621ZM183 621Q183 605 176 590T157 564T130 546T99 539Q70 539 51 557T32 605Q32 621 39 636T58 663T85 681T117 688Q145 688 164 669T183 621ZM-6 0L101 483H246L139 0H-6Z"  />
<glyph unicode="&#xF0;" horiz-adv-x="505" d="M155 547L273 582Q262 598 252 612T230 640L349 716Q370 693 387 671T420 625L503 650L518 585L454 566Q478 518 489 470T500 371Q500 304 484 236T435 113T350 23T230 -12Q127 -12 71 41T14 183Q14 232 30 280T74 367T143 430T233 454Q285 454 317 428T363 358Q359 396 345 438T308 523L170 482L155 547ZM233 116Q256 116 274 129T306 162T326 207T333 255Q333 282 315 304T258 327Q235 327 218 314T188 279T169 234T162 188Q162 116 233 116Z"  />
<glyph unicode="&#xF1;" horiz-adv-x="517" d="M270 0L337 300Q338 305 339 313T341 326Q341 348 327 357T294 367Q267 367 245 351T208 316L139 0H-6L101 483H246L232 424Q256 450 291 472T373 495Q432 495 464 466T497 390Q497 385 496 374T493 356L415 0H270ZM391 554Q367 554 353 563T330 583T311 604T288 613Q263 613 252 560H178Q191 623 218 658T295 694Q319 694 333 685T356 664T375 644T399 634Q421 634 434 688H508Q494 625 467 590T391 554Z"  />
<glyph unicode="&#xF2;" horiz-adv-x="505" d="M227 -12Q175 -12 136 3T71 45T31 110T17 193Q17 247 35 301T87 398T168 468T276 495Q328 495 367 480T432 438T472 373T486 290Q486 236 468 182T416 85T335 15T227 -12ZM234 116Q259 116 278 134T311 178T332 234T339 288Q339 329 321 348T269 367Q244 367 225 349T192 305T171 249T164 195Q164 154 182 135T234 116ZM286 556L184 700H309L380 556H286Z"  />
<glyph unicode="&#xF3;" horiz-adv-x="505" d="M358 556H262L397 700H524L358 556ZM227 -12Q175 -12 136 3T71 45T31 110T17 193Q17 247 35 301T87 398T168 468T276 495Q328 495 367 480T432 438T472 373T486 290Q486 236 468 182T416 85T335 15T227 -12ZM234 116Q259 116 278 134T311 178T332 234T339 288Q339 329 321 348T269 367Q244 367 225 349T192 305T171 249T164 195Q164 154 182 135T234 116Z"  />
<glyph unicode="&#xF4;" horiz-adv-x="505" d="M382 556L340 639L265 556H181L288 700H416L462 556H382ZM227 -12Q175 -12 136 3T71 45T31 110T17 193Q17 247 35 301T87 398T168 468T276 495Q328 495 367 480T432 438T472 373T486 290Q486 236 468 182T416 85T335 15T227 -12ZM234 116Q259 116 278 134T311 178T332 234T339 288Q339 329 321 348T269 367Q244 367 225 349T192 305T171 249T164 195Q164 154 182 135T234 116Z"  />
<glyph unicode="&#xF5;" horiz-adv-x="505" d="M227 -12Q175 -12 136 3T71 45T31 110T17 193Q17 247 35 301T87 398T168 468T276 495Q328 495 367 480T432 438T472 373T486 290Q486 236 468 182T416 85T335 15T227 -12ZM234 116Q259 116 278 134T311 178T332 234T339 288Q339 329 321 348T269 367Q244 367 225 349T192 305T171 249T164 195Q164 154 182 135T234 116ZM385 554Q361 554 347 563T324 583T305 604T282 613Q257 613 246 560H172Q185 623 212 658T289 694Q313 694 327 685T350 664T369 644T393 634Q415 634 428 688H502Q488 625 461 590T385 554Z"  />
<glyph unicode="&#xF6;" horiz-adv-x="505" d="M507 621Q507 605 500 590T481 564T454 546T422 539Q394 539 375 557T356 605Q356 621 363 636T382 663T409 681T440 688Q469 688 488 669T507 621ZM313 621Q313 605 306 590T287 564T260 546T229 539Q200 539 181 557T162 605Q162 621 169 636T188 663T215 681T247 688Q275 688 294 669T313 621ZM227 -12Q175 -12 136 3T71 45T31 110T17 193Q17 247 35 301T87 398T168 468T276 495Q328 495 367 480T432 438T472 373T486 290Q486 236 468 182T416 85T335 15T227 -12ZM234 116Q259 116 278 134T311 178T332 234T339 288Q339 329 321 348T269 367Q244 367 225 349T192 305T171 249T164 195Q164 154 182 135T234 116Z"  />
<glyph unicode="&#xF7;" horiz-adv-x="443" d="M40 294L59 381H444L424 294H40ZM200 111Q175 111 158 128T140 171Q140 200 161 221T212 243Q237 243 254 225T272 182Q272 167 266 155T250 132T227 117T200 111ZM271 430Q246 430 229 448T211 491Q211 505 217 518T232 540T255 556T283 562Q308 562 325 544T343 501Q343 486 337 474T321 451T298 436T271 430Z"  />
<glyph unicode="&#xF8;" horiz-adv-x="505" d="M-28 0L46 76Q17 126 17 193Q17 247 35 301T87 398T168 468T276 495Q361 495 415 453L444 483H531L456 407Q486 357 486 290Q486 236 468 182T416 85T335 15T227 -12Q141 -12 87 30L58 0H-28ZM234 116Q258 116 277 133T310 177T331 233T339 287L186 131Q204 116 234 116ZM269 367Q244 367 225 350T192 306T171 250T164 196L316 352Q298 367 269 367Z"  />
<glyph unicode="&#xF9;" horiz-adv-x="517" d="M246 483L178 180Q175 166 175 156Q175 136 189 126T224 116Q250 116 271 132T307 167L377 483H521L414 0H270L283 59Q259 33 224 11T143 -12Q84 -12 51 17T18 93Q18 98 19 109T22 127L101 483H246ZM291 556L189 700H314L385 556H291Z"  />
<glyph unicode="&#xFA;" horiz-adv-x="517" d="M364 556H268L403 700H530L364 556ZM246 483L178 180Q175 166 175 156Q175 136 189 126T224 116Q250 116 271 132T307 167L377 483H521L414 0H270L283 59Q259 33 224 11T143 -12Q84 -12 51 17T18 93Q18 98 19 109T22 127L101 483H246Z"  />
<glyph unicode="&#xFB;" horiz-adv-x="517" d="M387 556L345 639L270 556H186L293 700H421L467 556H387ZM246 483L178 180Q175 166 175 156Q175 136 189 126T224 116Q250 116 271 132T307 167L377 483H521L414 0H270L283 59Q259 33 224 11T143 -12Q84 -12 51 17T18 93Q18 98 19 109T22 127L101 483H246Z"  />
<glyph unicode="&#xFC;" horiz-adv-x="517" d="M513 621Q513 605 506 590T487 564T460 546T428 539Q400 539 381 557T362 605Q362 621 369 636T388 663T415 681T446 688Q475 688 494 669T513 621ZM319 621Q319 605 312 590T293 564T266 546T235 539Q206 539 187 557T168 605Q168 621 175 636T194 663T221 681T253 688Q281 688 300 669T319 621ZM246 483L178 180Q175 166 175 156Q175 136 189 126T224 116Q250 116 271 132T307 167L377 483H521L414 0H270L283 59Q259 33 224 11T143 -12Q84 -12 51 17T18 93Q18 98 19 109T22 127L101 483H246Z"  />
<glyph unicode="&#xFD;" horiz-adv-x="466" d="M-3 -62Q3 -65 13 -66T33 -68Q50 -68 60 -61T80 -40L101 -4L47 483H196L212 174L368 483H525L215 -72Q195 -108 175 -132T134 -170T88 -190T35 -196Q12 -196 -11 -193T-49 -183L-3 -62ZM334 556H238L373 700H500L334 556Z"  />
<glyph unicode="&#xFE;" horiz-adv-x="515" d="M275 -12Q233 -12 201 5T151 58L98 -184H-46L141 667H286L233 428Q261 463 290 479T354 495Q422 495 461 450T500 315Q500 265 486 208T444 101T374 20T275 -12ZM245 116Q270 116 290 133T323 177T344 233T351 289Q351 326 332 346T282 367Q261 367 243 355T210 322L174 161Q183 140 202 128T245 116Z"  />
<glyph unicode="&#xFF;" horiz-adv-x="466" d="M-3 -62Q3 -65 13 -66T33 -68Q50 -68 60 -61T80 -40L101 -4L47 483H196L212 174L368 483H525L215 -72Q195 -108 175 -132T134 -170T88 -190T35 -196Q12 -196 -11 -193T-49 -183L-3 -62ZM483 621Q483 605 476 590T457 564T430 546T398 539Q370 539 351 557T332 605Q332 621 339 636T358 663T385 681T416 688Q445 688 464 669T483 621ZM289 621Q289 605 282 590T263 564T236 546T205 539Q176 539 157 557T138 605Q138 621 145 636T164 663T191 681T223 688Q251 688 270 669T289 621Z"  />
<glyph unicode="&#x110;" horiz-adv-x="637" d="M23 0L82 269H16L44 398H111L170 667H399Q444 667 487 650T564 599T618 519T639 411Q639 344 620 272T557 139T439 39T257 0H23ZM244 269L216 141H285Q332 141 367 165T425 228T461 312T473 403Q473 460 444 493T369 526H301L273 398H373L344 269H244Z"  />
<glyph unicode="&#x131;" horiz-adv-x="241" d="M-6 0L101 483H246L139 0H-6Z"  />
<glyph unicode="&#x152;" horiz-adv-x="862" d="M377 0L387 52Q359 19 322 4T242 -12Q198 -12 159 6T92 59T47 142T30 251Q30 335 54 412T123 548T228 642T364 677Q411 677 449 660T510 604L524 667H925L894 526H654L629 409H861L830 268H597L570 141H809L778 0H377ZM475 444Q465 489 438 511T372 534Q331 534 299 509T243 443T208 353T196 255Q196 198 223 165T299 131Q334 131 367 152T423 213L475 444Z"  />
<glyph unicode="&#x153;" horiz-adv-x="794" d="M472 195Q471 193 471 187T471 178Q471 166 476 153T493 128T523 110T567 102Q591 102 617 110T663 136L708 42Q677 16 635 2T548 -12Q487 -12 447 13T388 73Q356 38 318 13T225 -12Q125 -12 71 42T17 193Q17 247 34 301T85 398T166 468T274 495Q329 495 369 471T429 411Q458 446 497 470T590 495Q629 495 663 484T723 448T764 387T779 300Q779 271 774 244T764 195H472ZM648 292Q650 302 650 313Q650 339 635 360T581 381Q561 381 545 373T518 351T499 322T489 292H648ZM335 288Q335 326 317 346T267 367Q243 367 224 350T192 308T171 252T164 195Q164 159 180 138T232 116Q256 116 275 133T308 177T328 233T335 288Z"  />
<glyph unicode="&#x160;" horiz-adv-x="511" d="M304 723L258 867H338L380 783L455 867H539L432 723H304ZM237 -12Q155 -12 87 16T-17 92L77 209Q103 173 148 151T243 129Q277 129 295 147T314 191Q314 209 296 223T252 253T194 284T137 324T92 377T74 450Q74 495 91 536T141 608T219 659T322 678Q385 678 445 655T545 588L453 472Q425 504 385 520T307 537Q278 537 262 521T245 482Q245 464 262 450T307 420T364 388T422 348T466 295T484 222Q484 174 467 132T417 57T340 7T237 -12Z"  />
<glyph unicode="&#x161;" horiz-adv-x="424" d="M223 556L177 700H257L299 616L374 700H458L351 556H223ZM185 -12Q122 -12 67 10T-21 69L56 162Q65 151 79 140T112 119T150 103T192 97Q215 97 229 108T244 136Q244 150 230 160T193 180T146 201T98 228T62 267T47 325Q47 358 59 388T96 443T156 481T239 495Q292 495 342 476T426 421L355 331Q348 340 336 349T308 367T275 380T239 385Q215 385 202 375T188 349Q188 337 203 328T240 310T288 290T336 261T373 220T388 162Q388 127 374 96T334 40T271 2T185 -12Z"  />
<glyph unicode="&#x178;" horiz-adv-x="557" d="M570 788Q570 772 563 757T544 731T517 713T485 706Q457 706 438 724T419 772Q419 788 426 803T445 830T472 848T503 855Q532 855 551 836T570 788ZM376 788Q376 772 369 757T350 731T323 713T292 706Q263 706 244 724T225 772Q225 788 232 803T251 830T278 848T310 855Q338 855 357 836T376 788ZM144 0L203 271L85 667H254L309 419L474 667H658L365 271L306 0H144Z"  />
<glyph unicode="&#x17D;" horiz-adv-x="495" d="M288 723L242 867H322L364 783L439 867H523L416 723H288ZM-21 0L8 132L309 526H95L126 667H548L519 538L216 141H439L408 0H-21Z"  />
<glyph unicode="&#x17E;" horiz-adv-x="417" d="M212 556L166 700H246L288 616L363 700H447L340 556H212ZM-24 0L-1 107L217 357H55L83 483H436L413 380L191 126H360L333 0H-24Z"  />
<glyph unicode="&#x192;" horiz-adv-x="440" d="M-50 -161L37 234H-7V360H65L101 524Q116 593 159 635T274 677Q306 677 340 669T401 639L351 519Q336 536 311 536Q291 536 277 522T258 484L230 360H317V234H202L114 -161H-50Z"  />
<glyph unicode="&#x2C6;" horiz-adv-x="281" d="M270 556L228 639L153 556H69L176 700H304L350 556H270Z"  />
<glyph unicode="&#x2C7;" horiz-adv-x="281" d="M147 556L101 700H181L223 616L298 700H382L275 556H147Z"  />
<glyph unicode="&#x2DA;" horiz-adv-x="199" d="M174 528Q133 528 109 553T84 619Q84 641 93 661T117 697T152 721T194 730Q235 730 259 705T284 639Q284 617 275 597T251 562T216 537T174 528ZM181 591Q198 591 210 603T222 633Q222 648 213 658T188 668Q171 668 159 656T147 626Q147 610 156 601T181 591Z"  />
<glyph unicode="&#x2DC;" horiz-adv-x="302" d="M283 554Q259 554 245 563T222 583T203 604T180 613Q155 613 144 560H70Q83 623 110 658T187 694Q211 694 225 685T248 664T267 644T291 634Q313 634 326 688H400Q386 625 359 590T283 554Z"  />
<glyph unicode="&#x2013;" horiz-adv-x="527" d="M16 181L43 303H509L482 181H16Z"  />
<glyph unicode="&#x2014;" horiz-adv-x="737" d="M16 181L43 303H719L692 181H16Z"  />
<glyph unicode="&#x2018;" horiz-adv-x="265" d="M86 465Q86 495 98 526T131 585T180 638T243 678L293 626Q280 620 265 611T235 592T209 568T191 542H202Q229 542 249 524T270 471Q270 451 262 434T240 404T208 384T172 376Q139 376 113 398T86 465Z"  />
<glyph unicode="&#x2019;" horiz-adv-x="265" d="M302 588Q302 558 290 527T257 468T208 415T145 375L95 427Q108 433 123 442T152 461T179 484T197 511H186Q159 511 139 529T118 582Q118 601 126 618T148 649T180 669T216 677Q250 677 276 655T302 588Z"  />
<glyph unicode="&#x201A;" horiz-adv-x="265" d="M189 78Q189 48 177 17T144 -42T95 -94T32 -134L-18 -82Q-5 -76 10 -68T40 -48T66 -25T85 2Q83 1 79 1T73 1Q46 1 26 19T5 73Q5 92 13 109T36 139T67 159T104 167Q137 167 163 145T189 78Z"  />
<glyph unicode="&#x201C;" horiz-adv-x="483" d="M304 465Q304 495 316 526T349 585T398 638T461 678L511 626Q498 620 483 611T453 592T427 568T409 542H420Q447 542 467 524T488 471Q488 451 480 434T458 404T426 384T390 376Q356 376 330 398T304 465ZM87 465Q87 495 99 526T132 585T181 638T244 678L294 626Q280 620 265 611T236 592T210 568T191 542H203Q230 542 250 524T271 471Q271 451 263 434T240 404T209 384T172 376Q139 376 113 398T87 465Z"  />
<glyph unicode="&#x201D;" horiz-adv-x="483" d="M302 588Q302 558 290 527T257 468T208 415T145 375L95 427Q108 433 123 442T152 461T179 484T197 511H186Q159 511 139 529T118 582Q118 601 126 618T148 649T180 669T216 677Q250 677 276 655T302 588ZM519 588Q519 558 507 527T474 468T425 415T362 375L312 427Q325 433 340 442T370 461T396 484T415 511H403Q376 511 356 529T335 582Q335 601 343 618T365 649T397 669T433 677Q467 677 493 655T519 588Z"  />
<glyph unicode="&#x201E;" horiz-adv-x="482" d="M189 78Q189 48 177 17T144 -42T95 -94T32 -134L-18 -82Q-5 -76 10 -68T40 -48T66 -25T85 2Q83 1 79 1T73 1Q46 1 26 19T5 73Q5 92 13 109T36 139T67 159T104 167Q137 167 163 145T189 78ZM406 78Q406 48 394 17T361 -42T312 -94T249 -134L199 -82Q212 -76 227 -68T257 -48T283 -25T302 2Q300 1 296 1T290 1Q263 1 243 19T222 73Q222 92 230 109T253 139T284 159T321 167Q354 167 380 145T406 78Z"  />
<glyph unicode="&#x2020;" horiz-adv-x="282" d="M235 523L196 327H121L169 523L79 519L94 587L183 584L199 677H274L249 584L338 587L323 519L235 523Z"  />
<glyph unicode="&#x2021;" horiz-adv-x="282" d="M323 519L235 523L193 335L283 339L268 271L180 274L163 180H88L113 274L24 271L39 339L127 335L168 523L79 519L94 587L182 584L199 677H274L249 584L338 587L323 519Z"  />
<glyph unicode="&#x2022;" horiz-adv-x="358" d="M302 254Q302 227 291 203T262 160T218 132T166 121Q118 121 87 152T56 231Q56 258 67 282T96 325T140 353T192 364Q240 364 271 333T302 254Z"  />
<glyph unicode="&#x2026;" horiz-adv-x="792" d="M87 -12Q52 -12 29 12T6 70Q6 90 14 107T35 138T65 159T103 167Q138 167 161 143T185 85Q185 65 177 48T156 17T124 -4T87 -12ZM351 -12Q317 -12 294 12T270 70Q270 90 278 107T299 138T329 159T367 167Q402 167 425 143T449 85Q449 65 441 48T420 17T389 -4T351 -12ZM615 -12Q581 -12 558 12T534 70Q534 90 542 107T563 138T594 159T632 167Q666 167 689 143T713 85Q713 65 705 48T684 17T653 -4T615 -12Z"  />
<glyph unicode="&#x2030;" horiz-adv-x="1010" d="M76 0L577 667H648L147 0H76ZM474 -12Q412 -12 372 24T332 121Q332 164 346 201T384 264T439 306T505 321Q535 321 561 312T606 285T636 243T647 188Q647 145 633 109T595 45T540 3T474 -12ZM478 75Q491 75 504 83T527 105T544 138T550 179Q550 205 537 219T500 234Q473 234 451 205T429 130Q429 104 442 90T478 75ZM216 343Q186 343 160 352T115 380T86 422T75 477Q75 520 89 557T127 620T182 662T248 677Q278 677 304 668T349 641T379 599T390 544Q390 500 376 464T338 400T283 358T216 343ZM222 431Q235 431 248 439T271 460T287 493T293 535Q293 561 280 575T243 590Q229 590 217 582T194 560T178 527T172 486Q172 460 185 446T222 431ZM801 -12Q739 -12 699 24T659 121Q659 164 673 201T711 264T766 306T832 321Q863 321 889 312T934 285T963 243T974 188Q974 145 960 109T922 45T867 3T801 -12ZM806 75Q819 75 832 83T855 105T871 138T877 179Q877 205 864 219T828 234Q814 234 802 226T779 205T762 172T756 130Q756 104 769 90T806 75Z"  />
<glyph unicode="&#x2039;" horiz-adv-x="305" d="M114 63L29 243L194 420H317L149 239L231 63H114Z"  />
<glyph unicode="&#x203A;" horiz-adv-x="305" d="M192 420L277 240L112 63H-11L158 245L75 420H192Z"  />
<glyph unicode="&#x2044;" horiz-adv-x="156" d="M-118 0H-189L312 667H384L-118 0Z"  />
<glyph unicode="&#x20AC;" horiz-adv-x="591" d="M319 -12Q264 -12 218 4T138 50T82 124T56 221H10L29 308H58Q60 321 61 334T66 360H40L60 448H93Q113 497 142 539T211 612T297 660T400 678Q458 678 501 660T573 613T619 546T643 471L490 431Q482 477 458 506T392 535Q355 535 325 511T271 448H427L407 360H235Q232 347 229 334T224 308H396L376 221H224Q232 179 259 155T328 131Q359 131 389 152T440 209L568 141Q520 61 455 25T319 -12Z"  />
<glyph unicode="&#x2122;" horiz-adv-x="414" d="M396 447L436 629L331 447H323L298 629L258 447H230L278 667H321L341 509L429 667H472L424 447H396ZM185 641L142 447H114L157 641H105L110 667H242L237 641H185Z"  />
<glyph unicode="&#xF656;" horiz-adv-x="285" d="M73 0L130 259L57 200L9 264L177 400H269L181 0H73Z"  />
<glyph unicode="&#xF657;" horiz-adv-x="355" d="M-19 0L0 83Q72 131 117 162T186 215T220 252T229 282Q229 300 215 310T178 321Q151 321 126 310T83 278L36 349Q65 375 104 390T185 406Q218 406 246 399T295 376T327 340T339 292Q339 266 327 242T291 194T231 144T146 85H297L278 0H-19Z"  />
<glyph unicode="&#xF658;" horiz-adv-x="355" d="M305 115Q305 92 295 71T265 32T217 4T152 -7Q96 -7 51 12T-15 65L57 129Q72 103 96 91T146 78Q174 78 186 93T199 126Q199 144 182 152T136 161Q128 161 118 161T103 160L122 244Q125 244 131 244T145 243T160 243T172 243Q201 243 215 254T230 286Q230 303 213 312T171 321Q148 321 126 313T85 286L41 350Q70 377 106 391T182 406Q253 406 296 379T339 302Q339 285 333 268T313 236T281 211T235 199Q268 190 286 168T305 115Z"  />
<glyph unicode="&#xF659;" horiz-adv-x="355" d="M262 81L245 0H138L155 81H-19L-2 158L192 400H333L281 165H322L303 81H262ZM203 294L99 165H174L203 294Z"  />


</font>
</defs>
</svg>
